<?xml version="1.0" encoding="UTF-8"?>
<svg width="75px" height="72px" viewBox="0 0 75 72" version="1.1" xmlns="http://www.w3.org/2000/svg" xmlns:xlink="http://www.w3.org/1999/xlink">
    <!-- Generator: Sketch 46.1 (44463) - http://www.bohemiancoding.com/sketch -->
    <title>github-logo</title>
    <desc>Created with Sketch.</desc>
    <defs></defs>
    <g id="Page-1" stroke="none" stroke-width="1" fill="none" fill-rule="evenodd">
        <g id="Desktop" transform="translate(-74.000000, -359.000000)" fill-rule="nonzero" fill="#000000">
            <g id="github-logo" transform="translate(74.000000, 359.000000)">
                <path d="M69.9696269,18.3792339 C66.6162729,12.7251725 62.0676622,8.24884414 56.3225979,4.94923917 C50.5766784,1.6494659 44.3038473,0 37.499658,0 C30.6963238,0 24.4214404,1.64997078 18.6767181,4.94923917 C12.9311406,8.24867585 8.38270102,12.7251725 5.02934698,18.3792339 C1.676506,24.0331271 0,30.2072221 0,36.9013509 C0,44.9425181 2.38401445,52.1733418 7.15324048,58.5956729 C11.9219535,65.018509 18.0824246,69.4628612 25.634141,71.9292343 C26.5131822,72.0897883 27.1639121,71.976862 27.5870148,71.5933161 C28.0102885,71.2092654 28.2216689,70.7282764 28.2216689,70.1523686 C28.2216689,70.0562717 28.2132889,69.1917369 28.197042,67.5577542 C28.1802821,65.9237715 28.1724152,64.4983071 28.1724152,63.2820343 L27.0493289,63.4732182 C26.3332695,63.6023009 25.4299435,63.656997 24.3393509,63.6415138 C23.2492715,63.6265355 22.1176342,63.514114 20.9459783,63.3050908 C19.7738094,63.0979188 18.6835589,62.6174347 17.6743717,61.8646481 C16.6656976,61.1118616 15.9496381,60.1264904 15.5263644,58.9100493 L15.0381032,57.8043467 C14.7126527,57.0682214 14.2002777,56.2504727 13.5002942,55.35413 C12.8003106,54.4569457 12.0924601,53.8487252 11.3764007,53.5284585 L11.0345323,53.2876274 C10.8067341,53.1275782 10.5953537,52.9345431 10.3998782,52.7105415 C10.2045738,52.48654 10.0583519,52.2623702 9.96069968,52.0378637 C9.86287641,51.813189 9.94393975,51.6289052 10.2047448,51.4843393 C10.4655498,51.3397733 10.9368801,51.269594 11.6207878,51.269594 L12.5969682,51.4131502 C13.2480401,51.5415598 14.0533718,51.9251056 15.0139894,52.5661439 C15.9740939,53.2066772 16.7633498,54.0394042 17.381928,55.0639882 C18.1309942,56.3777043 19.0334651,57.3787269 20.091906,58.0675611 C21.1494917,58.7563953 22.2157995,59.1002234 23.2898031,59.1002234 C24.3638068,59.1002234 25.2914175,59.0201146 26.0729775,58.8607386 C26.8536824,58.7005212 27.5861597,58.45969 28.2700675,58.1395917 C28.5630242,55.9924755 29.36066,54.3430096 30.6622908,53.1900159 C28.8070693,52.9981588 27.1391143,52.7091952 25.6575707,52.3249762 C24.1768822,51.9402522 22.6467691,51.3158753 21.0682574,50.4501624 C19.4888906,49.5856275 18.1787087,48.5120694 17.1373699,47.2313393 C16.09586,45.949936 15.2411036,44.2676525 14.5742978,42.1860033 C13.90715,40.1035126 13.5734906,37.7012602 13.5734906,34.9785728 C13.5734906,31.1018819 14.8595586,27.8029502 17.4311817,25.0799262 C16.226519,22.1653817 16.3402471,18.8980895 17.772708,15.2783861 C18.7167367,14.9897591 20.1167038,15.2063556 21.9719254,15.9268294 C23.827489,16.6476397 25.1860694,17.2651166 26.0490348,17.777072 C26.9120001,18.2888591 27.6034327,18.7225571 28.1243587,19.074295 C31.1522622,18.2417363 34.276963,17.8253729 37.4993159,17.8253729 C40.7216689,17.8253729 43.8470537,18.2417363 46.8751283,19.074295 L48.7305209,17.921638 C49.9993159,17.1525268 51.4976194,16.4477045 53.2218399,15.8070028 C54.9470865,15.1666378 56.2663324,14.9902639 57.1782094,15.278891 C58.6424799,18.8987627 58.7729679,22.1658866 57.5679632,25.080431 C60.1394152,27.803455 61.4259964,31.1032283 61.4259964,34.9790777 C61.4259964,37.7017651 61.0911398,40.1115908 60.4250181,42.2100696 C59.7580413,44.3088849 58.8959311,45.9894855 57.8383454,47.2554056 C56.7795625,48.5211573 55.4610007,49.5863007 53.882489,50.4506672 C52.3036352,51.315707 50.773009,51.9400839 49.2923205,52.3248079 C47.810948,52.7095318 46.142993,52.9986637 44.2877714,53.1908574 C45.9798402,54.631805 46.8260456,56.906321 46.8260456,60.0133957 L46.8260456,70.1510222 C46.8260456,70.72693 47.029559,71.2077507 47.4369279,71.5919697 C47.8437838,71.9755156 48.4863047,72.088442 49.3653459,71.9277196 C56.9180884,69.4616831 63.0785596,65.0171627 67.8471016,58.5943266 C72.6151305,52.1719954 75,44.9411718 75,36.9000045 C74.9982898,30.2067173 73.3209287,24.0331271 69.9696269,18.3792339 Z" id="Shape"></path>
            </g>
        </g>
    </g>
</svg>