<?xml version="1.0" encoding="UTF-8"?>
<svg width="97px" height="75px" viewBox="0 0 97 75" version="1.1" xmlns="http://www.w3.org/2000/svg" xmlns:xlink="http://www.w3.org/1999/xlink">
    <!-- Generator: Sketch 46.1 (44463) - http://www.bohemiancoding.com/sketch -->
    <title>gmail</title>
    <desc>Created with Sketch.</desc>
    <defs></defs>
    <g id="Page-1" stroke="none" stroke-width="1" fill="none" fill-rule="evenodd">
        <g id="Desktop" transform="translate(-842.000000, -359.000000)" fill-rule="nonzero">
            <g id="gmail" transform="translate(842.000000, 359.000000)">
                <g id="Group" transform="translate(7.000000, 0.000000)" fill="#F2F2F2">
                    <polygon id="Shape" points="84.9949226 12.0168367 78.8484071 74.811926 5.02327434 74.811926 0.0712721239 13.2321429 41.9358407 37.0794643"></polygon>
                    <polygon id="Shape" points="82.9099779 0.18807398 41.9358407 39.348023 0.96170354 0.18807398 41.9358407 0.18807398"></polygon>
                </g>
                <path d="M12,19.2160861 L12,75 L4.85108521,75 C2.17282958,75 0,72.9592862 0,70.4434567 L0,11 L7.83762058,11.2006548 L12,19.2160861 Z" id="Shape" fill="#F14336"></path>
                <path d="M97,10.5699021 L97,70.412849 C97,72.9453881 94.8271704,75 92.1463023,75 L85,75 L85,18.8411782 L88.9573955,10 L97,10.5699021 Z" id="Shape" fill="#D32E2A"></path>
                <path d="M97,4.57220366 L97,9.65695477 L85.687375,17.9012787 L48.5,45 L11.312625,17.9012787 L0,9.65695477 L0,4.57220366 C0,2.04791689 2.04836719,1.34584949e-15 4.57320898,1.34584949e-15 L7.22081641,1.34584949e-15 L48.5,30.0802473 L89.7791836,0 L92.4243281,0 C94.9516328,0 97,2.04772748 97,4.57220366 Z" id="Shape" fill="#F14336"></path>
                <polygon id="Shape" fill="#D32E2A" points="12 19 0 17.2983964 0 11"></polygon>
            </g>
        </g>
    </g>
</svg>