<?xml version="1.0" encoding="UTF-8"?>
<svg width="76px" height="76px" viewBox="0 0 76 76" version="1.1" xmlns="http://www.w3.org/2000/svg" xmlns:xlink="http://www.w3.org/1999/xlink">
    <!-- Generator: Sketch 46.1 (44463) - http://www.bohemiancoding.com/sketch -->
    <title>linkedin</title>
    <desc>Created with Sketch.</desc>
    <defs></defs>
    <g id="Page-1" stroke="none" stroke-width="1" fill="none" fill-rule="evenodd">
        <g id="Desktop" transform="translate(-604.000000, -359.000000)" fill-rule="nonzero">
            <g id="linkedin" transform="translate(604.000000, 359.000000)">
                <rect id="Rectangle-path" fill="#0084B1" x="0" y="0" width="76" height="76"></rect>
                <g id="Group" transform="translate(11.000000, 12.000000)" fill="#FFFFFF">
                    <path d="M6.5219906,0.0358333333 C9.9899185,0.0386666667 12.8500909,2.912 12.8426144,6.40816667 C12.8343072,10.069 9.80583072,12.8281667 6.47929154,12.7486667 C3.10523511,12.8171667 0.140059561,9.99016667 0.140724138,6.384 C0.140724138,2.8865 3.01202821,0.0331666667 6.5219906,0.0358333333 Z" id="Shape"></path>
                    <path d="M10.2064044,52.9118333 L2.77626959,52.9118333 C1.81196865,52.9118333 1.03026019,52.1276667 1.03026019,51.1603333 L1.03026019,19.3633333 C1.03026019,18.396 1.81196865,17.6118333 2.77626959,17.6118333 L10.2064044,17.6118333 C11.1707053,17.6118333 11.9524138,18.396 11.9524138,19.3633333 L11.9524138,51.1605 C11.9522476,52.1276667 11.1707053,52.9118333 10.2064044,52.9118333 Z" id="Shape"></path>
                    <path d="M52.9807273,28.7803333 C52.9807273,22.1143333 47.5938339,16.7103333 40.9485643,16.7103333 L39.0428903,16.7103333 C35.4073229,16.7103333 32.1954232,18.53 30.2634984,21.3113333 C30.0528276,21.6145 29.8577743,21.9293333 29.6786708,22.2543333 C29.6166991,22.245 29.5799812,22.2401667 29.5791505,22.2418333 L29.5791505,18.3388333 C29.5791505,17.9373333 29.2546708,17.6116667 28.8542633,17.6116667 L19.5842476,17.6116667 C19.1840063,17.6116667 18.8593605,17.9371667 18.8593605,18.3388333 L18.8593605,52.185 C18.8593605,52.5865 19.183674,52.912 19.5839154,52.9121667 L29.0559624,52.9145 C29.4563699,52.9146667 29.7810157,52.589 29.7810157,52.1873333 L29.7810157,32.6335 C29.7810157,29.2535 32.4683981,26.447 35.8376364,26.4088333 C37.5575611,26.3893333 39.1168245,27.0806667 40.2406238,28.2086667 C41.3496364,29.3205 42.0353135,30.8578333 42.0353135,32.5551667 L42.0353135,52.1898333 C42.0353135,52.5913333 42.3597931,52.9168333 42.7598683,52.917 L52.2553417,52.9193333 C52.6557492,52.9195 52.980395,52.5938333 52.980395,52.1921667 L52.980395,28.7803333 L52.9807273,28.7803333 Z" id="Shape"></path>
                </g>
            </g>
        </g>
    </g>
</svg>