<?xml version="1.0" encoding="UTF-8"?>
<svg width="92px" height="75px" viewBox="0 0 92 75" version="1.1" xmlns="http://www.w3.org/2000/svg" xmlns:xlink="http://www.w3.org/1999/xlink">
    <!-- Generator: Sketch 46.1 (44463) - http://www.bohemiancoding.com/sketch -->
    <title>twitter</title>
    <desc>Created with Sketch.</desc>
    <defs></defs>
    <g id="Page-1" stroke="none" stroke-width="1" fill="none" fill-rule="evenodd">
        <g id="Desktop" transform="translate(-329.000000, -360.000000)" fill-rule="nonzero" fill="#65BBF2">
            <g id="twitter" transform="translate(329.000000, 360.000000)">
                <path d="M64.213657,0 C53.5514075,0.162998889 45.1507764,9.45647676 45.1507764,20.2173077 L45.1507764,22.8260159 C26.0878958,19.4021317 16.7180511,14.1847151 6.37881288,3.26088535 C0.239980101,15.3260704 7.02501527,25.4347242 14.4562528,30.9783201 C9.44813934,30.9783201 5.24791373,30.326143 2.01690178,27.3914369 C1.69389051,27.228438 1.3706994,27.3914369 1.53220503,27.7176162 C4.27852022,37.82627 13.6483649,45.1632167 20.9180969,47.2827468 C14.2945673,47.2827468 9.93265624,48.2609217 5.24773388,45.3262156 C4.92472261,45.1632167 4.60153149,45.3262156 4.76303713,45.6522134 C8.31706034,55.5978683 15.4252866,58.6957548 25.7645249,58.6957548 C20.5949057,62.6088172 13.6483649,66.5218796 0.562811521,66.8478774 C0.0781147658,66.8478774 -0.244896504,67.5000545 0.239800251,67.8260522 C5.08622825,71.9021135 17.0410624,75 33.8421447,75 C61.4671619,75 83.9225601,50.2174529 83.9225601,19.5651306 L83.9225601,17.9347787 C88.2844711,16.3044267 90.7075952,12.3913643 92,8.47830191 C92,8.31530302 91.8384944,8.15230413 91.6768089,8.15230413 L82.4684698,11.4131895 C82.3069642,11.4131895 82.1454585,11.0871917 82.3069642,10.9240113 C86.1845382,7.82612484 89.092359,3.91306242 90.3847638,0.162998889 C90.3847638,0.162998889 90.2232582,0 90.0615727,0 C85.6996616,1.79353232 81.499436,3.58688313 78.268424,4.56523949 C77.7837273,4.72823838 77.1375249,4.72823838 76.653008,4.4022406 C74.5528952,3.26088535 68.2523769,0 64.213657,0" id="Shape"></path>
            </g>
        </g>
    </g>
</svg>